<svg width="1529" height="1529" xmlns="http://www.w3.org/2000/svg" xmlns:xlink="http://www.w3.org/1999/xlink" xml:space="preserve" overflow="hidden"><defs><clipPath id="clip0"><rect x="1254" y="291" width="1529" height="1529"/></clipPath></defs><g clip-path="url(#clip0)" transform="translate(-1254 -291)"><path d="M2252.83 1353.15 2332.45 1276.27 2646.65 1601.64 2567.04 1678.52Z" fill-rule="evenodd"/><path d="M2018 642.035C1814.78 642.035 1650.03 806.778 1650.03 1010 1650.03 1213.22 1814.78 1377.96 2018 1377.96 2221.22 1377.96 2385.96 1213.22 2385.96 1010 2385.96 806.778 2221.22 642.035 2018 642.035ZM2018 529C2283.65 529 2499 744.351 2499 1010 2499 1275.65 2283.65 1491 2018 1491 1752.35 1491 1537 1275.65 1537 1010 1537 744.351 1752.35 529 2018 529Z" fill-rule="evenodd"/><text font-family="Product Sans,Product Sans_MSFontService,sans-serif" font-weight="400" font-size="248" transform="matrix(1 0 0 1 1618.12 873)">652714</text><text font-family="Product Sans,Product Sans_MSFontService,sans-serif" font-weight="400" font-size="248" transform="matrix(1 0 0 1 1618.12 1111)">57</text><text fill="#FF0000" font-family="Product Sans,Product Sans_MSFontService,sans-serif" font-weight="700" font-size="248" transform="matrix(1 0 0 1 1885.1 1111)">27</text><text font-family="Product Sans,Product Sans_MSFontService,sans-serif" font-weight="400" font-size="248" transform="matrix(1 0 0 1 2154.94 1111)">38</text><text font-family="Product Sans,Product Sans_MSFontService,sans-serif" font-weight="400" font-size="248" transform="matrix(1 0 0 1 1618.12 1348)">16849</text><text font-family="Product Sans,Product Sans_MSFontService,sans-serif" font-weight="400" font-size="248" transform="matrix(1 0 0 1 2264.94 1348)">5</text></g></svg>